<svg width="136" height="36" viewBox="0 0 136 36" fill="none" xmlns="http://www.w3.org/2000/svg">
<path d="M0 1.19477C0 0.325922 0.988874 -0.170029 1.68182 0.351276L6.58714 4.04155C6.85182 4.24068 7.0076 4.55316 7.0076 4.88504V28.9597C7.0076 29.542 6.537 30.014 5.95646 30.014H1.05114C0.470613 30.014 0 29.542 0 28.9597V1.19477Z" fill="#F1F8FC"/>
<path d="M8.40912 11.1205C8.40912 10.2364 9.42865 9.74488 10.1169 10.2972L15.0222 14.2335C15.2716 14.4336 15.4167 14.7365 15.4167 15.0568V28.9596C15.4167 29.542 14.9461 30.014 14.3656 30.014H9.46026C8.87971 30.014 8.40912 29.542 8.40912 28.9596V11.1205Z" fill="#F1F8FC"/>
<path d="M16.8182 15.0568C16.8182 14.7365 16.9634 14.4336 17.2127 14.2335L22.1181 10.2972C22.8063 9.74488 23.8258 10.2364 23.8258 11.1205V28.9597C23.8258 29.542 23.3552 30.014 22.7747 30.014H17.8694C17.2888 30.014 16.8182 29.542 16.8182 28.9597V15.0568Z" fill="#F1F8FC"/>
<path d="M25.2274 5.27361C25.2274 4.92106 25.403 4.59186 25.6954 4.39631L32.0023 0.178853C32.7008 -0.288269 33.6365 0.214023 33.6365 1.05614V28.9597C33.6365 29.542 33.1659 30.014 32.5853 30.014H26.2785C25.698 30.014 25.2274 29.542 25.2274 28.9597V5.27361Z" fill="#F1F8FC"/>
<path d="M52.461 17.178C53.3839 17.178 53.8453 17.5791 53.8453 18.4122V22.948C53.8453 23.7503 53.3839 24.1514 52.461 24.1514H44.3094V18.4122C44.3094 17.5791 44.7705 17.178 45.7242 17.178H52.461ZM61.2587 17.6717C61.2587 13.6295 58.798 11.6239 53.8453 11.6239H44.3399C39.3873 11.6239 36.9265 13.6295 36.9265 17.6717V36H44.3094V30.014H53.8453C58.798 30.014 61.2587 28.0084 61.2587 23.9663V17.6717ZM98.4995 5.32931H71.7371C66.7845 5.32931 64.3235 7.33496 64.3235 11.3462V30.014H71.891V21.9298H98.3149V15.2649H71.891V13.1976C71.891 12.3953 72.3524 11.9942 73.275 11.9942H98.4995V5.32931ZM108.597 11.6239H101.214V30.014H108.597V11.6239ZM108.597 4.71219H101.183V9.21717H108.597V4.71219ZM136 17.6717C136 13.6295 133.539 11.6239 128.586 11.6239H111.668V30.014H119.05V17.178H127.202C128.125 17.178 128.586 17.5791 128.586 18.3813V30.014H136V17.6717Z" fill="#F1F8FC"/>
</svg>
